<svg id="Capa_1" data-name="Capa 1" xmlns="http://www.w3.org/2000/svg" viewBox="0 0 320.24 80.81"><defs><style>.cls-1{fill:#fff;fill-rule:evenodd;}</style></defs><title>logo_aleman</title><path class="cls-1" d="M223.45,55.91Zm-33.3-1.66Zm78.26-3.33Zm-23.31,0Zm-20,10c.29-3.25,3-7.31,5.25-9.73,4.21-4.48,5.58-5.25,10.57-5.26,0,6.76-.6,5.23-5.7,9.29-3,2.36-6.14,5.35-10.12,5.7ZM151.24,50.85c.51-3.59,4.12-5.9,8-5.55-1.72,2.67-5.2,4-8,5.55Zm72.21,5.06c-.15,1.72-1.13,3.81-.38,5.5.62,1.39,2.36,2,3.79,1.93,3.35-.08,6.74-3.23,9.21-5.24,2.27-1.85,4.38-3.94,6.8-5.61a9.92,9.92,0,0,0,2.22-1.55c-.31,2.41-1.58,5.74-.31,8,4.26,7.6,13.15-.4,17.26-3.7,1.1-.88,2.21-1.77,3.37-2.57a31.83,31.83,0,0,0,3-1.76c-.08,3.88-1.79,5.12-1.12,7.78,3.33.89,5.42-2.51,8-5.09s5.83-5.47,8.82-5.88c-.4.06-1.09,6.16-1.18,6.84a25.24,25.24,0,0,0-.27,5.56c.22,2.38,1.26,4.46,3.89,4.55,2.8.1,5.7-1.44,8.1-2.72a70.93,70.93,0,0,0,7.8-4.91c2.14-1.54,4.22-3.19,6.22-4.91a13.73,13.73,0,0,0,3.87-4.54c-3.06,1.13-5.58,3.39-8.11,5.39A76.86,76.86,0,0,1,294,60.4c-1.91,1.05-6.12,3.37-8.07,1.55-2.88-2.67.8-8.42,1.35-11.38.3-1.62,0-4.4-1.16-5.69-4.34-1.68-11.37,5.85-15,8.46l2.07-6.75L271,44.9c-2.19,3.51-5.5,6-8.94,8.24-1.73,1.12-3.51,2.17-5.23,3.31-2.16,1.44-5.11,3.9-7.79,4-4,.1-.78-7.58-.26-9.39.09-.29,1.3-4.41.82-4.57-3.54-1.18-2.63-.78-5.28,1.26-1.16-1.48-3.23-7.17-9.62-4-4.2,2.1-7.47,6-10.69,9.34s-7.16,7.63-11.57,9.4c-2,.82-5.32.08-6.43-2.07-.85-1.65-.17-3.71.44-5.32,1.16-3,2.81-5.67,2.53-9.06-.18-2.16-1-5.16-3.67-3.87-2.54,1.2-4.79,3.68-6.88,5.52a51.91,51.91,0,0,1-8.21,6.5,18.85,18.85,0,0,1,1.13-5.31c.56-1.51,1.15-3.53-.05-4.93-3-3.49-7.5,3.14-9.18,5a12.72,12.72,0,0,1-5,3.38c.14-1.46.92-4.35.29-5.74-.52-1.16-1.16-.1-1.81.64-3.9,4.44-7.86,8.36-13.56,10.42-3.15,1.14-11,3.24-13.39-.51-1.71-2.67,2-5,4-5.72,2.77-1,6.48-1.4,8-4.35s-1.09-5.14-4-4.49c-5.43,1.21-15.13,12.11-9.27,17.25,3.91,3.43,10.46,2.28,14.69.18,3.59-1.78,6.34-4.85,10-6.42.72-.3,1.46-.56,2.19-.81-.52,1.36-1.32,3.37-.2,4.66,1,1.12,2.43.69,3.41-.15a27.87,27.87,0,0,0,2.63-3.27c1-1.14,2.08-2.19,3.16-3.23a36.19,36.19,0,0,1,5-4,12.52,12.52,0,0,1-1.09,5.26c-.75,1.82-.75,4.55.74,6,1.91,1.91,4.22-.79,5.52-2.12,1.89-1.95,3.87-3.8,5.83-5.69s3.81-3.58,6.55-4.26c-.19,0-1,4.72-1.07,5.19a28.91,28.91,0,0,0-1,5.35c-.17,2.82.87,7.43,3.69,8.73,2.58,1.18,5.52-.8,7.69-2.05A35.86,35.86,0,0,0,223.45,55.91Z"/><path class="cls-1" d="M101.9,50.92Zm45.57-40.43c7.61-2.15,1.19,12.45.05,14.68-3.43,6.75-8.53,12.07-12.59,18.38-2.66,4.12-5.27,9.12-5.13,14.16.14,5.34,4.17,8.25,8.73,10.1,1.28.52,2.58,1,3.88,1.42-5.53,2.5-9.86,1.22-13.16-4s-2.32-10.89-.95-16.66c-1.83.84-3.34,3-5,4.16-1.78,1.32-3.25,2.48-5.11,3.72-3.55,2.37-10.48,7.79-14.59,4.62-3.77-2.92-2.11-6-1.74-10.13A109.81,109.81,0,0,0,91.67,59C78,70.4,76.12,57.36,87.1,46.93c1.73-1.64,5.1-4,7.42-4.15,3.84-.17,4.85,2.78,6.55,4.95,2.65-2,1.74-2.44,5.28-1.26.37,3.51-3.27,7.65-1.95,13.61,5.58,0,12.08-5.11,16.53-8.45a30.24,30.24,0,0,0,5.24-4.3c1.24-1.48,3-3.14,3.83-4.89.53-1.17,1.08-3.47,1.75-5.22,1.15-3,2.34-5.91,3.32-9,1.94-6,5.43-15.64,12.25-17.72ZM82,60.81c-.43-.77.81-3.32,1.57-4.74a23.93,23.93,0,0,1,3.26-4.66c2.81-3.14,7.78-8.44,10.94-5.49,2.81,2.63-.6,5.23-5.69,9.29C89.27,57.43,83,62.74,82,60.81Zm52.4-20.71c1.38-5.81,7.89-25,14.15-26.65-.13,6.26-9.63,23.68-14.15,26.65Z"/><path class="cls-1" d="M13,50.85c.52-3.59,4.13-5.9,8-5.55-1.71,2.67-5.19,4-8,5.55ZM59.48,9.94a2.76,2.76,0,0,1,1.92.11c2.75,1.2,1.44,6,.74,8.06-1.49,4.32-4,8.42-6.08,12.45a35.48,35.48,0,0,1-6.36,9.09,31.12,31.12,0,0,0-8,14.93c-.64,2.85-.76,6,1.13,8.47,1.64,2.12,4.26,3.15,6.58,4.35.74.39,3.87,1.73,3.24,3-.76,1.52-4.69-.41-5.52-.85-6-3.18-10.57-10.22-8.68-17.1A26.42,26.42,0,0,1,40,48.53c-.42.92-2.83,2.07-3.67,2.68q-1.8,1.3-3.63,2.57c-2.25,1.56-4.54,3.07-6.91,4.44-3.42,2-7.26,4-11.26,4.26-5.26.41-8-3.38-6.38-8.28a21.31,21.31,0,0,1,4.4-7.69c9.79-9.81,14.09,0,5.49,3.83-4,1.77-11.6,3.32-6.7,9.52C16.11,60.43,21.44,58,25.62,56a43,43,0,0,0,10.25-6.73c2.92-2.56,6.35-5.5,7.05-9.53a44.9,44.9,0,0,1,3.75-11.37c2-4.5,4.13-9.15,7-13.18C54.77,13.73,57.11,10.6,59.48,9.94ZM46.12,40.1c1.38-5.81,7.89-25,14.16-26.65-.14,6.26-9.64,23.68-14.16,26.65Z"/><path class="cls-1" d="M235.11,40.1c1.21-.33,12.51-7.2,13.32-8.33a33.87,33.87,0,0,0-7.67,3.15c-3.57,2.2-5.26,1.64-5.65,5.18Z"/></svg>